<svg width="152" height="42" viewBox="0 0 152 42" fill="none" xmlns="http://www.w3.org/2000/svg">
<path d="M9.72483 1.27007C5.37132 2.42981 3.01613 7.24723 4.90741 11.0833C5.19289 11.6721 5.56758 12.3501 5.72816 12.6178L6.04932 13.0995L4.78252 14.4198C2.32028 17.007 1.16053 19.6833 1.01779 23.0912C0.892898 26.1065 1.41032 27.9621 3.05181 30.46C4.40783 32.4941 5.17505 33.3505 6.47753 34.2426C9.95678 36.6156 14.685 36.5978 17.8431 34.2069C18.7887 33.4932 18.9314 33.1721 18.4497 32.8688C18.2178 32.726 17.9501 32.8152 17.29 33.2256C16.1124 33.975 14.8813 34.3675 13.3825 34.4567L12.1335 34.5281L13.2041 34.2605C14.4887 33.9214 16.5406 32.9223 17.397 32.2086L18.0215 31.6912L17.6468 31.3165L17.2721 30.9418L16.3978 31.5484C14.9883 32.4941 13.6858 32.8331 11.5091 32.8331C9.3323 32.8331 7.92276 32.4227 6.31695 31.3165C4.28293 29.9248 3.56924 28.3547 3.58708 25.1609C3.58708 22.0206 4.37214 19.7547 6.33479 17.346C7.85139 15.4904 7.85139 15.4725 9.42151 16.3111C13.5074 18.47 18.3605 17.7563 21.5007 14.5626C22.3036 13.7597 22.8746 12.9568 23.3385 11.9933L24.0165 10.6194H25.1941C26.1754 10.6194 29.8688 11.0833 30.0294 11.2439C30.0472 11.2617 29.7082 11.9576 29.28 12.7783C27.7991 15.5796 27.0319 18.7377 27.0319 22.1455C27.0319 26.5347 28.2273 30.121 30.9393 33.8679C33.5086 37.4364 36.9343 39.738 41.2521 40.8086C43.4824 41.3617 47.0152 41.3617 49.2098 40.8086C52.2787 40.0414 54.7052 38.6318 56.7571 36.4372C58.238 34.8493 59.1658 33.1185 59.7011 30.9596C60.2363 28.8899 60.1114 26.1422 59.4334 24.0903C58.7019 21.9136 57.0069 19.1837 55.3119 17.4709C52.8496 14.9729 50.3517 13.9381 46.926 13.9381C44.9098 13.9559 43.536 14.2236 41.9123 14.9016L41.0916 15.2584L39.7534 13.9916C39.0219 13.2958 37.8086 12.3501 37.0592 11.8684C34.7397 10.3875 34.8646 10.5837 35.8816 9.85221C37.1127 8.92441 39.5215 7.71113 41.3592 7.06881C44.1426 6.08748 46.0339 5.78416 49.87 5.67711C55.294 5.53437 58.5949 6.14101 62.4488 8.01445C64.9646 9.24557 67.1948 10.8335 69.1753 12.814C70.9952 14.6161 72.0836 16.3646 72.7973 18.5771C73.1542 19.6655 73.3861 20.0758 73.6002 20.0758C73.7965 20.0758 73.9571 20.3078 74.0641 20.736C74.2604 21.5032 74.7243 21.8779 75.0633 21.5389C75.6164 20.9858 73.9392 16.8999 71.8338 13.724C67.9799 7.88955 62.2882 3.87504 55.9007 2.4655C54.7052 2.2157 53.6347 2.14434 50.316 2.14434C46.7297 2.16218 45.9804 2.19786 44.3389 2.55471C39.5215 3.6074 35.721 5.44516 32.8841 8.08582L31.7244 9.19204L30.0294 8.76383C29.1016 8.51403 27.6742 8.22856 26.8356 8.1215C26.0148 8.01445 25.087 7.88955 24.7837 7.83602C24.2841 7.76466 24.2128 7.69329 24.1236 6.9796C23.963 5.90906 23.4812 4.5352 23.1065 4.10699C22.9281 3.91072 22.607 3.3933 22.3929 2.94724C21.8754 1.91239 21.9468 1.96591 21.4294 2.28707L21.0012 2.57255L21.4472 3.69662C21.7505 4.42815 21.929 5.28458 22.0003 6.26591L22.0895 7.71113L20.4124 7.83602C18.0393 8.03229 15.363 8.56756 13.2576 9.29909C11.4912 9.92357 8.90408 11.1368 7.85139 11.8505C7.56591 12.0646 7.22691 12.2252 7.11985 12.2252C6.74516 12.2252 6.44185 11.1012 6.44185 9.79868C6.44185 8.15719 7.17338 6.55138 8.49371 5.37379C9.35014 4.60657 10.9559 3.83935 11.7053 3.83935C12.2584 3.83935 12.758 3.50035 12.758 3.12566C12.758 2.62608 12.1692 2.53687 10.9381 2.85803C8.45803 3.48251 6.53106 5.21321 5.69247 7.55055L5.46052 8.21071L5.44268 7.63976C5.44268 6.78333 6.06716 5.24889 6.78085 4.42815C7.8157 3.21487 9.24309 2.44766 11.0273 2.14434C11.6161 2.05513 11.6875 1.98376 11.6875 1.51986C11.6875 1.05596 11.6161 0.984589 11.2057 1.00243C10.9203 1.00243 10.2601 1.12733 9.72483 1.27007ZM40.8596 5.51653C38.4509 6.3908 36.4347 7.55055 34.5791 9.12067C33.6513 9.92357 33.3837 10.0306 33.2053 9.74515C33.0447 9.49536 35.6497 7.60408 37.3268 6.72981C38.7007 6.01611 41.6268 4.92773 42.1978 4.92773C42.3405 4.92773 41.7517 5.19537 40.8596 5.51653ZM21.6792 8.97793C21.6792 9.28125 21.2331 9.54889 20.6978 9.54889C18.3962 9.54889 13.5966 10.9584 10.6348 12.4929C8.70782 13.5099 8.4045 13.5991 8.20823 13.2779C8.04765 13.0281 8.44018 12.7427 10.4742 11.69C13.1684 10.2804 16.2908 9.38831 19.6451 9.03146C21.6435 8.81735 21.6792 8.81735 21.6792 8.97793ZM28.8696 9.65594C29.9401 9.92357 30.7787 10.1555 30.7252 10.1912C30.6895 10.2269 29.8688 10.102 28.8874 9.92357C27.924 9.72731 26.4966 9.53104 25.7472 9.45967C24.98 9.3883 24.302 9.26341 24.2484 9.15635C24.0522 8.85303 26.6572 9.13851 28.8696 9.65594ZM20.7871 10.7978C20.7871 11.1368 19.1099 12.7962 18.1821 13.4028C16.719 14.3485 15.2381 14.7588 13.3825 14.7767C11.7767 14.7767 10.3672 14.509 10.1709 14.17C10.0103 13.9202 13.8464 12.136 15.702 11.6186C17.1829 11.1904 19.7344 10.673 20.4837 10.6373C20.6443 10.6194 20.7871 10.7086 20.7871 10.7978ZM22.036 12.029C20.4124 15.08 16.612 16.8642 12.9543 16.3111C10.9203 16.0078 10.7062 15.8294 12.4904 15.9186C16.273 16.1148 19.8057 14.4198 21.697 11.4937C22.5177 10.209 22.7854 10.6194 22.036 12.029ZM31.2783 12.7248C30.0829 14.5269 29.0659 16.9178 28.5484 19.1837L28.2986 20.3435L28.3879 19.3621C28.602 17.2211 29.5476 14.4377 30.6717 12.6713C31.1534 11.9398 31.3854 11.69 31.5281 11.8327C31.6708 11.9754 31.5995 12.2252 31.2783 12.7248ZM35.5605 13.2958C37.202 14.17 39.5215 15.7402 39.5215 15.99C39.5215 16.0613 39.004 16.6323 38.3617 17.2389C36.1849 19.3265 35.3999 21.7887 36.2028 24.0903C36.6132 25.2501 38.0049 27.302 38.8613 27.9978C39.4858 28.4974 39.682 28.5509 40.7704 28.5509C41.8409 28.5509 42.0729 28.4796 42.7687 27.9978C43.2862 27.6053 43.7322 27.07 44.1426 26.2493C44.6779 25.2323 44.7492 24.9111 44.7492 23.787C44.7492 22.3775 44.3924 20.8966 43.6787 19.3978C43.4289 18.8804 43.2683 18.3451 43.3219 18.2202C43.5003 17.792 45.8911 17.3281 47.9073 17.3281C51.0833 17.3281 53.6704 18.363 55.7758 20.4327C56.65 21.307 57.0426 21.8601 57.3281 22.6273C59.148 27.4804 57.3102 32.9223 52.8318 35.9198C49.9592 37.8289 47.2828 38.5426 43.4646 38.3999C40.8775 38.3107 39.7891 38.0609 37.4339 37.0795C34.5256 35.8484 31.8493 33.4754 30.7252 31.1024C29.619 28.8007 29.28 26.9986 29.28 23.7335C29.2978 20.6646 29.4941 19.3265 30.3327 17.114C31.2426 14.6875 32.7949 12.4037 33.5086 12.4037C33.7227 12.4037 34.6505 12.814 35.5605 13.2958ZM7.04848 14.5983C7.04848 14.7231 6.63811 15.2227 6.13853 15.7045C5.10367 16.7215 3.78335 18.4879 3.39082 19.38C3.24808 19.719 3.14102 19.8617 3.12318 19.7011C3.12318 19.041 4.62194 16.4538 5.65679 15.3298C6.65596 14.2771 7.04848 14.063 7.04848 14.5983ZM43.4468 16.3468C42.9115 16.5431 42.3405 16.668 42.1978 16.6323C41.8766 16.5609 43.536 15.99 44.0712 15.99C44.2675 15.99 43.982 16.1505 43.4468 16.3468ZM40.7704 17.4173C40.7704 17.5065 40.2887 18.0418 39.682 18.5949C38.4866 19.7011 37.6837 20.7895 37.2733 21.8244L37.0235 22.4845L37.0949 21.753C37.2198 20.397 38.2725 18.809 39.7534 17.7385C40.5206 17.1854 40.7704 17.114 40.7704 17.4173ZM42.2513 19.9153C43.1791 22.6094 42.1443 25.5177 40.1459 25.8924C39.4144 26.0173 38.5223 25.714 38.2725 25.2323C37.9692 24.697 38.0762 22.8949 38.4331 22.1099C39.004 20.8609 41.1986 18.702 41.7339 18.8804C41.8409 18.9161 42.0729 19.38 42.2513 19.9153ZM43.1791 25.714C42.5011 27.1057 41.5019 27.7123 40.3065 27.4804C39.5036 27.3376 39.5393 27.1057 40.3779 26.963C41.3414 26.8202 42.4654 25.9459 43.0542 24.8933C43.7144 23.68 43.8393 24.3758 43.1791 25.714ZM58.9874 29.3895C58.3272 33.7073 55.9007 36.8297 51.7969 38.7032C48.5496 40.1841 45.2131 40.4874 41.3414 39.6845C39.8961 39.3812 40.36 39.292 42.1264 39.5418C47.3364 40.2376 52.9389 38.1858 56.1683 34.3854C57.2388 33.1185 58.3451 30.9239 58.7554 29.2289C58.916 28.5331 59.0944 27.98 59.1123 28.0157C59.148 28.0513 59.0944 28.658 58.9874 29.3895Z" stroke="#D08227" stroke-miterlimit="10"/>
<path d="M140.794 1.00243C140.384 0.984589 140.312 1.05596 140.312 1.51986C140.312 1.98376 140.384 2.05513 140.973 2.14434C142.757 2.44766 144.184 3.21487 145.219 4.42815C145.933 5.24889 146.557 6.78333 146.557 7.63976L146.539 8.21071L146.307 7.55055C145.469 5.21321 143.542 3.48251 141.062 2.85803C139.831 2.53687 139.242 2.62608 139.242 3.12566C139.242 3.50035 139.742 3.83935 140.295 3.83935C141.044 3.83935 142.65 4.60657 143.506 5.37379C144.827 6.55138 145.558 8.15719 145.558 9.79868C145.558 11.1012 145.255 12.2252 144.88 12.2252C144.773 12.2252 144.434 12.0646 144.149 11.8505C143.096 11.1368 140.509 9.92357 138.742 9.29909C136.637 8.56756 133.961 8.03229 131.588 7.83602L129.91 7.71113L130 6.26591C130.071 5.28458 130.249 4.42815 130.553 3.69662L130.999 2.57255L130.571 2.28707C130.053 1.96591 130.125 1.91239 129.607 2.94724C129.393 3.3933 129.072 3.91072 128.893 4.10699C128.519 4.5352 128.037 5.90906 127.876 6.9796C127.787 7.69329 127.716 7.76466 127.216 7.83602C126.913 7.88955 125.985 8.01445 125.164 8.1215C124.326 8.22856 122.898 8.51403 121.971 8.76383L120.276 9.19204L119.116 8.08582C116.279 5.44516 112.479 3.6074 107.661 2.55471C106.02 2.19786 105.27 2.16218 101.684 2.14434C98.3653 2.14434 97.2947 2.2157 96.0993 2.4655C89.7118 3.87504 84.0201 7.88955 80.1661 13.724C78.0608 16.8999 76.3836 20.9858 76.9367 21.5389C77.2757 21.8779 77.7396 21.5032 77.9359 20.736C78.0429 20.3078 78.2035 20.0758 78.3997 20.0758C78.6139 20.0758 78.8458 19.6655 79.2027 18.5771C79.9163 16.3646 81.0047 14.6161 82.8246 12.814C84.8051 10.8335 87.0354 9.24557 89.5512 8.01445C93.4051 6.14101 96.7059 5.53437 102.13 5.67711C105.966 5.78416 107.857 6.08748 110.641 7.06881C112.479 7.71113 114.887 8.92441 116.118 9.85221C117.135 10.5837 117.26 10.3875 114.941 11.8684C114.191 12.3501 112.978 13.2958 112.247 13.9916L110.908 15.2584L110.088 14.9016C108.464 14.2236 107.09 13.9559 105.074 13.9381C101.648 13.9381 99.1503 14.9729 96.6881 17.4709C94.9931 19.1837 93.2981 21.9136 92.5665 24.0903C91.8885 26.1422 91.7636 28.8899 92.2989 30.9596C92.8342 33.1185 93.762 34.8493 95.2429 36.4372C97.2947 38.6318 99.7213 40.0414 102.79 40.8086C104.985 41.3617 108.518 41.3617 110.748 40.8086C115.066 39.738 118.491 37.4364 121.061 33.8679C123.773 30.121 124.968 26.5347 124.968 22.1455C124.968 18.7377 124.201 15.5796 122.72 12.7783C122.292 11.9576 121.953 11.2617 121.971 11.2439C122.131 11.0833 125.825 10.6194 126.806 10.6194H127.983L128.661 11.9933C129.125 12.9568 129.696 13.7597 130.499 14.5626C133.639 17.7563 138.493 18.47 142.578 16.3111C144.149 15.4725 144.149 15.4904 145.665 17.346C147.628 19.7547 148.413 22.0206 148.413 25.1609C148.431 28.3547 147.717 29.9248 145.683 31.3165C144.077 32.4227 142.668 32.8331 140.491 32.8331C138.314 32.8331 137.012 32.4941 135.602 31.5484L134.728 30.9418L134.353 31.3165L133.978 31.6912L134.603 32.2086C135.459 32.9223 137.511 33.9214 138.796 34.2605L139.866 34.5281L138.617 34.4567C137.119 34.3675 135.888 33.975 134.71 33.2256C134.05 32.8152 133.782 32.726 133.55 32.8688C133.069 33.1721 133.211 33.4932 134.157 34.2069C137.315 36.5978 142.043 36.6156 145.522 34.2426C146.825 33.3505 147.592 32.4941 148.948 30.46C150.59 27.9621 151.107 26.1065 150.982 23.0912C150.839 19.6833 149.68 17.007 147.217 14.4198L145.951 13.0995L146.272 12.6178C146.432 12.3501 146.807 11.6721 147.093 11.0833C148.984 7.24723 146.629 2.42981 142.275 1.27007C141.74 1.12733 141.08 1.00243 140.794 1.00243ZM109.802 4.92773C110.373 4.92773 113.299 6.01611 114.673 6.72981C116.35 7.60408 118.955 9.49536 118.795 9.74515C118.616 10.0306 118.349 9.92357 117.421 9.12067C115.565 7.55055 113.549 6.3908 111.14 5.51653C110.248 5.19537 109.659 4.92773 109.802 4.92773ZM132.355 9.03146C135.709 9.38831 138.832 10.2804 141.526 11.69C143.56 12.7427 143.952 13.0281 143.792 13.2779C143.595 13.5991 143.292 13.5099 141.365 12.4929C138.403 10.9584 133.604 9.54889 131.302 9.54889C130.767 9.54889 130.321 9.28125 130.321 8.97793C130.321 8.81735 130.356 8.81735 132.355 9.03146ZM127.752 9.15635C127.698 9.26341 127.02 9.3883 126.253 9.45967C125.503 9.53104 124.076 9.72731 123.113 9.92357C122.131 10.102 121.31 10.2269 121.275 10.1912C121.221 10.1555 122.06 9.92357 123.13 9.65594C125.343 9.13851 127.948 8.85303 127.752 9.15635ZM131.516 10.6373C132.266 10.673 134.817 11.1904 136.298 11.6186C138.154 12.136 141.99 13.9202 141.829 14.17C141.633 14.509 140.223 14.7767 138.617 14.7767C136.762 14.7588 135.281 14.3485 133.818 13.4028C132.89 12.7962 131.213 11.1368 131.213 10.7978C131.213 10.7086 131.356 10.6194 131.516 10.6373ZM130.303 11.4937C132.194 14.4198 135.727 16.1148 139.51 15.9186C141.294 15.8294 141.08 16.0078 139.046 16.3111C135.388 16.8642 131.588 15.08 129.964 12.029C129.215 10.6194 129.482 10.209 130.303 11.4937ZM120.472 11.8327C120.615 11.69 120.847 11.9398 121.328 12.6713C122.452 14.4377 123.398 17.2211 123.612 19.3621L123.701 20.3435L123.452 19.1837C122.934 16.9178 121.917 14.5269 120.722 12.7248C120.4 12.2252 120.329 11.9754 120.472 11.8327ZM118.491 12.4037C119.205 12.4037 120.757 14.6875 121.667 17.114C122.506 19.3265 122.702 20.6646 122.72 23.7335C122.72 26.9986 122.381 28.8007 121.275 31.1024C120.151 33.4754 117.474 35.8484 114.566 37.0795C112.211 38.0609 111.122 38.3107 108.535 38.3999C104.717 38.5426 102.041 37.8289 99.1682 35.9198C94.6898 32.9223 92.852 27.4804 94.6719 22.6273C94.9574 21.8601 95.3499 21.307 96.2242 20.4327C98.3296 18.363 100.917 17.3281 104.093 17.3281C106.109 17.3281 108.5 17.792 108.678 18.2202C108.732 18.3451 108.571 18.8804 108.321 19.3978C107.608 20.8966 107.251 22.3775 107.251 23.787C107.251 24.9111 107.322 25.2323 107.857 26.2493C108.268 27.07 108.714 27.6053 109.231 27.9978C109.927 28.4796 110.159 28.5509 111.23 28.5509C112.318 28.5509 112.514 28.4974 113.139 27.9978C113.995 27.302 115.387 25.2501 115.797 24.0903C116.6 21.7887 115.815 19.3265 113.638 17.2389C112.996 16.6323 112.479 16.0613 112.479 15.99C112.479 15.7402 114.798 14.17 116.44 13.2958C117.349 12.814 118.277 12.4037 118.491 12.4037ZM146.343 15.3298C147.378 16.4538 148.877 19.041 148.877 19.7011C148.859 19.8617 148.752 19.719 148.609 19.38C148.217 18.4879 146.896 16.7215 145.861 15.7045C145.362 15.2227 144.951 14.7231 144.951 14.5983C144.951 14.063 145.344 14.2771 146.343 15.3298ZM107.929 15.99C108.464 15.99 110.123 16.5609 109.802 16.6323C109.659 16.668 109.088 16.5431 108.553 16.3468C108.018 16.1505 107.732 15.99 107.929 15.99ZM112.247 17.7385C113.727 18.809 114.78 20.397 114.905 21.753L114.976 22.4845L114.727 21.8244C114.316 20.7895 113.513 19.7011 112.318 18.5949C111.711 18.0418 111.23 17.5065 111.23 17.4173C111.23 17.114 111.479 17.1854 112.247 17.7385ZM110.266 18.8804C110.801 18.702 112.996 20.8609 113.567 22.1099C113.924 22.8949 114.031 24.697 113.727 25.2323C113.478 25.714 112.586 26.0173 111.854 25.8924C109.856 25.5177 108.821 22.6094 109.749 19.9153C109.927 19.38 110.159 18.9161 110.266 18.8804ZM108.946 24.8933C109.535 25.9459 110.659 26.8202 111.622 26.963C112.461 27.1057 112.496 27.3376 111.693 27.4804C110.498 27.7123 109.499 27.1057 108.821 25.714C108.161 24.3758 108.286 23.68 108.946 24.8933ZM92.8877 28.0157C92.9055 27.98 93.084 28.5331 93.2445 29.2289C93.6549 30.9239 94.7611 33.1185 95.8317 34.3854C99.0611 38.1858 104.664 40.2376 109.874 39.5418C111.64 39.292 112.104 39.3812 110.659 39.6845C106.787 40.4874 103.45 40.1841 100.203 38.7032C96.0993 36.8297 93.6727 33.7073 93.0126 29.3895C92.9055 28.658 92.852 28.0513 92.8877 28.0157Z" stroke="#D08227" stroke-miterlimit="10"/>
</svg>
