<svg width="151" height="42" viewBox="0 0 151 42" fill="none" xmlns="http://www.w3.org/2000/svg">
<path d="M9.22483 1.27007C4.87132 2.42981 2.51613 7.24723 4.40741 11.0833C4.69289 11.6721 5.06758 12.3501 5.22816 12.6178L5.54932 13.0995L4.28252 14.4198C1.82028 17.007 0.660532 19.6833 0.517794 23.0912C0.392898 26.1065 0.910323 27.9621 2.55181 30.46C3.90783 32.4941 4.67505 33.3505 5.97753 34.2426C9.45678 36.6156 14.185 36.5978 17.3431 34.2069C18.2887 33.4932 18.4314 33.1721 17.9497 32.8688C17.7178 32.726 17.4501 32.8152 16.79 33.2256C15.6124 33.975 14.3813 34.3675 12.8825 34.4567L11.6335 34.5281L12.7041 34.2605C13.9887 33.9214 16.0406 32.9223 16.897 32.2086L17.5215 31.6912L17.1468 31.3165L16.7721 30.9418L15.8978 31.5484C14.4883 32.4941 13.1858 32.8331 11.0091 32.8331C8.8323 32.8331 7.42276 32.4227 5.81695 31.3165C3.78293 29.9248 3.06924 28.3547 3.08708 25.1609C3.08708 22.0206 3.87214 19.7547 5.83479 17.346C7.35139 15.4904 7.35139 15.4725 8.92151 16.3111C13.0074 18.47 17.8605 17.7563 21.0007 14.5626C21.8036 13.7597 22.3746 12.9568 22.8385 11.9933L23.5165 10.6194H24.6941C25.6754 10.6194 29.3688 11.0833 29.5294 11.2439C29.5472 11.2617 29.2082 11.9576 28.78 12.7783C27.2991 15.5796 26.5319 18.7377 26.5319 22.1455C26.5319 26.5347 27.7273 30.121 30.4393 33.8679C33.0086 37.4364 36.4343 39.738 40.7521 40.8086C42.9824 41.3617 46.5152 41.3617 48.7098 40.8086C51.7787 40.0414 54.2052 38.6318 56.2571 36.4372C57.738 34.8493 58.6658 33.1185 59.2011 30.9596C59.7363 28.8899 59.6114 26.1422 58.9334 24.0903C58.2019 21.9136 56.5069 19.1837 54.8119 17.4709C52.3496 14.9729 49.8517 13.9381 46.426 13.9381C44.4098 13.9559 43.036 14.2236 41.4123 14.9016L40.5916 15.2584L39.2534 13.9916C38.5219 13.2958 37.3086 12.3501 36.5592 11.8684C34.2397 10.3875 34.3646 10.5837 35.3816 9.85221C36.6127 8.92441 39.0215 7.71113 40.8592 7.06881C43.6426 6.08748 45.5339 5.78416 49.37 5.67711C54.794 5.53437 58.0949 6.14101 61.9488 8.01445C64.4646 9.24557 66.6948 10.8335 68.6753 12.814C70.4952 14.6161 71.5836 16.3646 72.2973 18.5771C72.6542 19.6655 72.8861 20.0758 73.1002 20.0758C73.2965 20.0758 73.4571 20.3078 73.5641 20.736C73.7604 21.5032 74.2243 21.8779 74.5633 21.5389C75.1164 20.9858 73.4392 16.8999 71.3338 13.724C67.4799 7.88955 61.7882 3.87504 55.4007 2.4655C54.2052 2.2157 53.1347 2.14434 49.816 2.14434C46.2297 2.16218 45.4804 2.19786 43.8389 2.55471C39.0215 3.6074 35.221 5.44516 32.3841 8.08582L31.2244 9.19204L29.5294 8.76383C28.6016 8.51403 27.1742 8.22856 26.3356 8.1215C25.5148 8.01445 24.587 7.88955 24.2837 7.83602C23.7841 7.76466 23.7128 7.69329 23.6236 6.9796C23.463 5.90906 22.9812 4.5352 22.6065 4.10699C22.4281 3.91072 22.107 3.3933 21.8929 2.94724C21.3754 1.91239 21.4468 1.96591 20.9294 2.28707L20.5012 2.57255L20.9472 3.69662C21.2505 4.42815 21.429 5.28458 21.5003 6.26591L21.5895 7.71113L19.9124 7.83602C17.5393 8.03229 14.863 8.56756 12.7576 9.29909C10.9912 9.92357 8.40408 11.1368 7.35139 11.8505C7.06591 12.0646 6.72691 12.2252 6.61985 12.2252C6.24516 12.2252 5.94185 11.1012 5.94185 9.79868C5.94185 8.15719 6.67338 6.55138 7.99371 5.37379C8.85014 4.60657 10.4559 3.83935 11.2053 3.83935C11.7584 3.83935 12.258 3.50035 12.258 3.12566C12.258 2.62608 11.6692 2.53687 10.4381 2.85803C7.95803 3.48251 6.03106 5.21321 5.19247 7.55055L4.96052 8.21071L4.94268 7.63976C4.94268 6.78333 5.56716 5.24889 6.28085 4.42815C7.3157 3.21487 8.74309 2.44766 10.5273 2.14434C11.1161 2.05513 11.1875 1.98376 11.1875 1.51986C11.1875 1.05596 11.1161 0.984589 10.7057 1.00243C10.4203 1.00243 9.7601 1.12733 9.22483 1.27007ZM40.3596 5.51653C37.9509 6.3908 35.9347 7.55055 34.0791 9.12067C33.1513 9.92357 32.8837 10.0306 32.7053 9.74515C32.5447 9.49536 35.1497 7.60408 36.8268 6.72981C38.2007 6.01611 41.1268 4.92773 41.6978 4.92773C41.8405 4.92773 41.2517 5.19537 40.3596 5.51653ZM21.1792 8.97793C21.1792 9.28125 20.7331 9.54889 20.1978 9.54889C17.8962 9.54889 13.0966 10.9584 10.1348 12.4929C8.20782 13.5099 7.9045 13.5991 7.70823 13.2779C7.54765 13.0281 7.94018 12.7427 9.9742 11.69C12.6684 10.2804 15.7908 9.38831 19.1451 9.03146C21.1435 8.81735 21.1792 8.81735 21.1792 8.97793ZM28.3696 9.65594C29.4401 9.92357 30.2787 10.1555 30.2252 10.1912C30.1895 10.2269 29.3688 10.102 28.3874 9.92357C27.424 9.72731 25.9966 9.53104 25.2472 9.45967C24.48 9.3883 23.802 9.26341 23.7484 9.15635C23.5522 8.85303 26.1572 9.13851 28.3696 9.65594ZM20.2871 10.7978C20.2871 11.1368 18.6099 12.7962 17.6821 13.4028C16.219 14.3485 14.7381 14.7588 12.8825 14.7767C11.2767 14.7767 9.86716 14.509 9.67089 14.17C9.51031 13.9202 13.3464 12.136 15.202 11.6186C16.6829 11.1904 19.2344 10.673 19.9837 10.6373C20.1443 10.6194 20.2871 10.7086 20.2871 10.7978ZM21.536 12.029C19.9124 15.08 16.112 16.8642 12.4543 16.3111C10.4203 16.0078 10.2062 15.8294 11.9904 15.9186C15.773 16.1148 19.3057 14.4198 21.197 11.4937C22.0177 10.209 22.2854 10.6194 21.536 12.029ZM30.7783 12.7248C29.5829 14.5269 28.5659 16.9178 28.0484 19.1837L27.7986 20.3435L27.8879 19.3621C28.102 17.2211 29.0476 14.4377 30.1717 12.6713C30.6534 11.9398 30.8854 11.69 31.0281 11.8327C31.1708 11.9754 31.0995 12.2252 30.7783 12.7248ZM35.0605 13.2958C36.702 14.17 39.0215 15.7402 39.0215 15.99C39.0215 16.0613 38.504 16.6323 37.8617 17.2389C35.6849 19.3265 34.8999 21.7887 35.7028 24.0903C36.1132 25.2501 37.5049 27.302 38.3613 27.9978C38.9858 28.4974 39.182 28.5509 40.2704 28.5509C41.3409 28.5509 41.5729 28.4796 42.2687 27.9978C42.7862 27.6053 43.2322 27.07 43.6426 26.2493C44.1779 25.2323 44.2492 24.9111 44.2492 23.787C44.2492 22.3775 43.8924 20.8966 43.1787 19.3978C42.9289 18.8804 42.7683 18.3451 42.8219 18.2202C43.0003 17.792 45.3911 17.3281 47.4073 17.3281C50.5833 17.3281 53.1704 18.363 55.2758 20.4327C56.15 21.307 56.5426 21.8601 56.8281 22.6273C58.648 27.4804 56.8102 32.9223 52.3318 35.9198C49.4592 37.8289 46.7828 38.5426 42.9646 38.3999C40.3775 38.3107 39.2891 38.0609 36.9339 37.0795C34.0256 35.8484 31.3493 33.4754 30.2252 31.1024C29.119 28.8007 28.78 26.9986 28.78 23.7335C28.7978 20.6646 28.9941 19.3265 29.8327 17.114C30.7426 14.6875 32.2949 12.4037 33.0086 12.4037C33.2227 12.4037 34.1505 12.814 35.0605 13.2958ZM6.54848 14.5983C6.54848 14.7231 6.13811 15.2227 5.63853 15.7045C4.60367 16.7215 3.28335 18.4879 2.89082 19.38C2.74808 19.719 2.64102 19.8617 2.62318 19.7011C2.62318 19.041 4.12194 16.4538 5.15679 15.3298C6.15596 14.2771 6.54848 14.063 6.54848 14.5983ZM42.9468 16.3468C42.4115 16.5431 41.8405 16.668 41.6978 16.6323C41.3766 16.5609 43.036 15.99 43.5712 15.99C43.7675 15.99 43.482 16.1505 42.9468 16.3468ZM40.2704 17.4173C40.2704 17.5065 39.7887 18.0418 39.182 18.5949C37.9866 19.7011 37.1837 20.7895 36.7733 21.8244L36.5235 22.4845L36.5949 21.753C36.7198 20.397 37.7725 18.809 39.2534 17.7385C40.0206 17.1854 40.2704 17.114 40.2704 17.4173ZM41.7513 19.9153C42.6791 22.6094 41.6443 25.5177 39.6459 25.8924C38.9144 26.0173 38.0223 25.714 37.7725 25.2323C37.4692 24.697 37.5762 22.8949 37.9331 22.1099C38.504 20.8609 40.6986 18.702 41.2339 18.8804C41.3409 18.9161 41.5729 19.38 41.7513 19.9153ZM42.6791 25.714C42.0011 27.1057 41.0019 27.7123 39.8065 27.4804C39.0036 27.3376 39.0393 27.1057 39.8779 26.963C40.8414 26.8202 41.9654 25.9459 42.5542 24.8933C43.2144 23.68 43.3393 24.3758 42.6791 25.714ZM58.4874 29.3895C57.8272 33.7073 55.4007 36.8297 51.2969 38.7032C48.0496 40.1841 44.7131 40.4874 40.8414 39.6845C39.3961 39.3812 39.86 39.292 41.6264 39.5418C46.8364 40.2376 52.4389 38.1858 55.6683 34.3854C56.7388 33.1185 57.8451 30.9239 58.2554 29.2289C58.416 28.5331 58.5944 27.98 58.6123 28.0157C58.648 28.0513 58.5944 28.658 58.4874 29.3895Z" stroke="#7E4D5D" stroke-miterlimit="10"/>
<path d="M140.294 1.00243C139.884 0.984589 139.812 1.05596 139.812 1.51986C139.812 1.98376 139.884 2.05513 140.473 2.14434C142.257 2.44766 143.684 3.21487 144.719 4.42815C145.433 5.24889 146.057 6.78333 146.057 7.63976L146.039 8.21071L145.807 7.55055C144.969 5.21321 143.042 3.48251 140.562 2.85803C139.331 2.53687 138.742 2.62608 138.742 3.12566C138.742 3.50035 139.242 3.83935 139.795 3.83935C140.544 3.83935 142.15 4.60657 143.006 5.37379C144.327 6.55138 145.058 8.15719 145.058 9.79868C145.058 11.1012 144.755 12.2252 144.38 12.2252C144.273 12.2252 143.934 12.0646 143.649 11.8505C142.596 11.1368 140.009 9.92357 138.242 9.29909C136.137 8.56756 133.461 8.03229 131.088 7.83602L129.41 7.71113L129.5 6.26591C129.571 5.28458 129.749 4.42815 130.053 3.69662L130.499 2.57255L130.071 2.28707C129.553 1.96591 129.625 1.91239 129.107 2.94724C128.893 3.3933 128.572 3.91072 128.393 4.10699C128.019 4.5352 127.537 5.90906 127.376 6.9796C127.287 7.69329 127.216 7.76466 126.716 7.83602C126.413 7.88955 125.485 8.01445 124.664 8.1215C123.826 8.22856 122.398 8.51403 121.471 8.76383L119.776 9.19204L118.616 8.08582C115.779 5.44516 111.979 3.6074 107.161 2.55471C105.52 2.19786 104.77 2.16218 101.184 2.14434C97.8653 2.14434 96.7947 2.2157 95.5993 2.4655C89.2118 3.87504 83.5201 7.88955 79.6661 13.724C77.5608 16.8999 75.8836 20.9858 76.4367 21.5389C76.7757 21.8779 77.2396 21.5032 77.4359 20.736C77.5429 20.3078 77.7035 20.0758 77.8997 20.0758C78.1139 20.0758 78.3458 19.6655 78.7027 18.5771C79.4163 16.3646 80.5047 14.6161 82.3246 12.814C84.3051 10.8335 86.5354 9.24557 89.0512 8.01445C92.9051 6.14101 96.2059 5.53437 101.63 5.67711C105.466 5.78416 107.357 6.08748 110.141 7.06881C111.979 7.71113 114.387 8.92441 115.618 9.85221C116.635 10.5837 116.76 10.3875 114.441 11.8684C113.691 12.3501 112.478 13.2958 111.747 13.9916L110.408 15.2584L109.588 14.9016C107.964 14.2236 106.59 13.9559 104.574 13.9381C101.148 13.9381 98.6503 14.9729 96.1881 17.4709C94.4931 19.1837 92.7981 21.9136 92.0665 24.0903C91.3885 26.1422 91.2636 28.8899 91.7989 30.9596C92.3342 33.1185 93.262 34.8493 94.7429 36.4372C96.7947 38.6318 99.2213 40.0414 102.29 40.8086C104.485 41.3617 108.018 41.3617 110.248 40.8086C114.566 39.738 117.991 37.4364 120.561 33.8679C123.273 30.121 124.468 26.5347 124.468 22.1455C124.468 18.7377 123.701 15.5796 122.22 12.7783C121.792 11.9576 121.453 11.2617 121.471 11.2439C121.631 11.0833 125.325 10.6194 126.306 10.6194H127.483L128.161 11.9933C128.625 12.9568 129.196 13.7597 129.999 14.5626C133.139 17.7563 137.993 18.47 142.078 16.3111C143.649 15.4725 143.649 15.4904 145.165 17.346C147.128 19.7547 147.913 22.0206 147.913 25.1609C147.931 28.3547 147.217 29.9248 145.183 31.3165C143.577 32.4227 142.168 32.8331 139.991 32.8331C137.814 32.8331 136.512 32.4941 135.102 31.5484L134.228 30.9418L133.853 31.3165L133.478 31.6912L134.103 32.2086C134.959 32.9223 137.011 33.9214 138.296 34.2605L139.366 34.5281L138.117 34.4567C136.619 34.3675 135.388 33.975 134.21 33.2256C133.55 32.8152 133.282 32.726 133.05 32.8688C132.569 33.1721 132.711 33.4932 133.657 34.2069C136.815 36.5978 141.543 36.6156 145.022 34.2426C146.325 33.3505 147.092 32.4941 148.448 30.46C150.09 27.9621 150.607 26.1065 150.482 23.0912C150.339 19.6833 149.18 17.007 146.717 14.4198L145.451 13.0995L145.772 12.6178C145.932 12.3501 146.307 11.6721 146.593 11.0833C148.484 7.24723 146.129 2.42981 141.775 1.27007C141.24 1.12733 140.58 1.00243 140.294 1.00243ZM109.302 4.92773C109.873 4.92773 112.799 6.01611 114.173 6.72981C115.85 7.60408 118.455 9.49536 118.295 9.74515C118.116 10.0306 117.849 9.92357 116.921 9.12067C115.065 7.55055 113.049 6.3908 110.64 5.51653C109.748 5.19537 109.159 4.92773 109.302 4.92773ZM131.855 9.03146C135.209 9.38831 138.332 10.2804 141.026 11.69C143.06 12.7427 143.452 13.0281 143.292 13.2779C143.095 13.5991 142.792 13.5099 140.865 12.4929C137.903 10.9584 133.104 9.54889 130.802 9.54889C130.267 9.54889 129.821 9.28125 129.821 8.97793C129.821 8.81735 129.856 8.81735 131.855 9.03146ZM127.252 9.15635C127.198 9.26341 126.52 9.3883 125.753 9.45967C125.003 9.53104 123.576 9.72731 122.613 9.92357C121.631 10.102 120.81 10.2269 120.775 10.1912C120.721 10.1555 121.56 9.92357 122.63 9.65594C124.843 9.13851 127.448 8.85303 127.252 9.15635ZM131.016 10.6373C131.766 10.673 134.317 11.1904 135.798 11.6186C137.654 12.136 141.49 13.9202 141.329 14.17C141.133 14.509 139.723 14.7767 138.117 14.7767C136.262 14.7588 134.781 14.3485 133.318 13.4028C132.39 12.7962 130.713 11.1368 130.713 10.7978C130.713 10.7086 130.856 10.6194 131.016 10.6373ZM129.803 11.4937C131.694 14.4198 135.227 16.1148 139.01 15.9186C140.794 15.8294 140.58 16.0078 138.546 16.3111C134.888 16.8642 131.088 15.08 129.464 12.029C128.715 10.6194 128.982 10.209 129.803 11.4937ZM119.972 11.8327C120.115 11.69 120.347 11.9398 120.828 12.6713C121.952 14.4377 122.898 17.2211 123.112 19.3621L123.201 20.3435L122.952 19.1837C122.434 16.9178 121.417 14.5269 120.222 12.7248C119.9 12.2252 119.829 11.9754 119.972 11.8327ZM117.991 12.4037C118.705 12.4037 120.257 14.6875 121.167 17.114C122.006 19.3265 122.202 20.6646 122.22 23.7335C122.22 26.9986 121.881 28.8007 120.775 31.1024C119.651 33.4754 116.974 35.8484 114.066 37.0795C111.711 38.0609 110.622 38.3107 108.035 38.3999C104.217 38.5426 101.541 37.8289 98.6682 35.9198C94.1898 32.9223 92.352 27.4804 94.1719 22.6273C94.4574 21.8601 94.8499 21.307 95.7242 20.4327C97.8296 18.363 100.417 17.3281 103.593 17.3281C105.609 17.3281 108 17.792 108.178 18.2202C108.232 18.3451 108.071 18.8804 107.821 19.3978C107.108 20.8966 106.751 22.3775 106.751 23.787C106.751 24.9111 106.822 25.2323 107.357 26.2493C107.768 27.07 108.214 27.6053 108.731 27.9978C109.427 28.4796 109.659 28.5509 110.73 28.5509C111.818 28.5509 112.014 28.4974 112.639 27.9978C113.495 27.302 114.887 25.2501 115.297 24.0903C116.1 21.7887 115.315 19.3265 113.138 17.2389C112.496 16.6323 111.979 16.0613 111.979 15.99C111.979 15.7402 114.298 14.17 115.94 13.2958C116.849 12.814 117.777 12.4037 117.991 12.4037ZM145.843 15.3298C146.878 16.4538 148.377 19.041 148.377 19.7011C148.359 19.8617 148.252 19.719 148.109 19.38C147.717 18.4879 146.396 16.7215 145.361 15.7045C144.862 15.2227 144.451 14.7231 144.451 14.5983C144.451 14.063 144.844 14.2771 145.843 15.3298ZM107.429 15.99C107.964 15.99 109.623 16.5609 109.302 16.6323C109.159 16.668 108.588 16.5431 108.053 16.3468C107.518 16.1505 107.232 15.99 107.429 15.99ZM111.747 17.7385C113.227 18.809 114.28 20.397 114.405 21.753L114.476 22.4845L114.227 21.8244C113.816 20.7895 113.013 19.7011 111.818 18.5949C111.211 18.0418 110.73 17.5065 110.73 17.4173C110.73 17.114 110.979 17.1854 111.747 17.7385ZM109.766 18.8804C110.301 18.702 112.496 20.8609 113.067 22.1099C113.424 22.8949 113.531 24.697 113.227 25.2323C112.978 25.714 112.086 26.0173 111.354 25.8924C109.356 25.5177 108.321 22.6094 109.249 19.9153C109.427 19.38 109.659 18.9161 109.766 18.8804ZM108.446 24.8933C109.035 25.9459 110.159 26.8202 111.122 26.963C111.961 27.1057 111.996 27.3376 111.193 27.4804C109.998 27.7123 108.999 27.1057 108.321 25.714C107.661 24.3758 107.786 23.68 108.446 24.8933ZM92.3877 28.0157C92.4055 27.98 92.584 28.5331 92.7445 29.2289C93.1549 30.9239 94.2611 33.1185 95.3317 34.3854C98.5611 38.1858 104.164 40.2376 109.374 39.5418C111.14 39.292 111.604 39.3812 110.159 39.6845C106.287 40.4874 102.95 40.1841 99.703 38.7032C95.5993 36.8297 93.1727 33.7073 92.5126 29.3895C92.4055 28.658 92.352 28.0513 92.3877 28.0157Z" stroke="#7E4D5D" stroke-miterlimit="10"/>
</svg>
